<svg width="56" height="60" viewBox="0 0 56 60" fill="none" xmlns="http://www.w3.org/2000/svg">
<g clip-path="url(#clip0_22_1222)">
<path d="M20.4485 39.5514C28.6032 47.7061 41.8845 47.7061 50.0392 39.5514C58.1938 31.3967 58.1938 18.1154 50.0392 9.96074C41.8845 1.80605 28.6032 1.80605 20.4485 9.96074C13.2501 17.1592 12.4001 28.3553 17.9251 36.4967L12.9712 41.4373L12.772 41.2381C12.3337 40.7998 11.6165 40.7998 11.1782 41.2381L1.96104 50.4553C-0.137402 52.5537 -0.137402 55.9537 1.96104 58.0522C4.05947 60.1506 7.45947 60.1506 9.55791 58.0522L18.7751 48.835C19.2134 48.3967 19.2134 47.6795 18.7751 47.2412L18.5759 47.042L21.5509 44.067C21.9892 43.6287 21.9892 42.9115 21.5509 42.4732C21.1126 42.035 20.3954 42.035 19.9571 42.4732L16.9821 45.4482L14.5782 43.0443L19.3063 38.3162C19.6649 38.7279 20.0501 39.1396 20.4485 39.5514ZM16.3845 48.0248L7.96416 56.4451C6.74228 57.667 4.77666 57.667 3.55478 56.4451C2.33291 55.2232 2.33291 53.2576 3.55478 52.0357L11.9751 43.6154L16.3845 48.0248ZM22.0423 11.5545C29.3204 4.27637 41.1673 4.27637 48.4454 11.5545C55.7235 18.8326 55.7235 30.6795 48.4454 37.9576C41.1673 45.2357 29.3204 45.2357 22.0423 37.9576C14.7642 30.6795 14.7642 18.8326 22.0423 11.5545Z" fill="#006FC6"/>
<path d="M46.6658 13.3342C45.1119 11.7803 43.3057 10.585 41.2869 9.77482C40.7158 9.53576 40.0518 9.82795 39.826 10.399C39.5869 10.9701 39.8791 11.6342 40.4502 11.86C42.19 12.5639 43.7439 13.5865 45.0721 14.9279C50.4908 20.3467 50.4908 29.1654 45.0721 34.5842C39.6533 40.003 30.8346 40.003 25.4158 34.5842C19.9971 29.1654 19.9971 20.3467 25.4158 14.9279C28.4307 11.9131 32.5744 10.4654 36.8111 10.9436C37.4354 11.01 37.9799 10.5717 38.0596 9.94748C38.126 9.32326 37.6877 8.76545 37.0635 8.69904C32.1494 8.14123 27.315 9.82795 23.8221 13.3342C17.5268 19.6295 17.5268 29.8826 23.8221 36.178C30.1174 42.4733 40.3705 42.4733 46.6658 36.178C52.9611 29.8826 52.9611 19.6295 46.6658 13.3342Z" fill="#006FC6"/>
<path d="M43.6774 23.2021L36.0406 15.5654C35.8281 15.3529 35.5492 15.2334 35.2438 15.2334C34.9383 15.2334 34.6594 15.3529 34.4469 15.5654L26.8102 23.2021C26.3719 23.6404 26.3719 24.3576 26.8102 24.7959C27.2484 25.2342 27.9656 25.2342 28.4039 24.7959L28.7227 24.4771V32.6318C28.7227 33.2561 29.2273 33.7607 29.8516 33.7607H40.6492C41.2734 33.7607 41.7781 33.2561 41.7781 32.6318V28.4217C41.7781 27.7975 41.2734 27.2928 40.6492 27.2928C40.025 27.2928 39.5203 27.7975 39.5203 28.4217V31.5162H30.9672V22.2459L35.2438 17.9693L39.5203 22.2459V24.6764C39.5203 25.3006 40.025 25.8053 40.6492 25.8053C41.2734 25.8053 41.7781 25.3006 41.7781 24.6764V24.4904L42.0969 24.8092C42.3227 25.035 42.6016 25.1412 42.8938 25.1412C43.1859 25.1412 43.4649 25.035 43.6906 24.8092C44.1156 24.3443 44.1156 23.6404 43.6774 23.2021Z" fill="#006FC6"/>
</g>
<defs>
<clipPath id="clip0_22_1222">
<rect width="56" height="60" fill="white"/>
</clipPath>
</defs>
</svg>
