<svg width="200" height="37" viewBox="0 0 200 37" fill="none" xmlns="http://www.w3.org/2000/svg">
<path d="M16.6538 22.9106L3.61538 6H0V31H4.34615V14.0894L17.3846 31H21V6H16.6538V22.9106Z" fill="#FDFDFD"/>
<path d="M43.8822 8.40575C41.994 7.41468 39.8414 6.90079 37.5 6.90079V0L25 7.23115V29.7688L37.5 37V30.0992C39.8414 30.0992 41.994 29.5853 43.8822 28.5942C45.7704 27.6032 47.281 26.2083 48.3761 24.4464C49.4713 22.6845 50 20.7024 50 18.5C50 16.2976 49.4713 14.3155 48.3761 12.5536C47.281 10.7917 45.7704 9.43353 43.8822 8.40575ZM34.0634 20.4821C33.4592 20.4821 32.9683 19.6012 32.9683 18.5C32.9683 17.3988 33.4592 16.5179 34.0634 16.5179C34.6677 16.5179 35.1586 17.3988 35.1586 18.5C35.1586 19.6012 34.7054 20.4821 34.0634 20.4821ZM44.5619 22.6111C43.8444 23.8224 42.9003 24.7768 41.6541 25.4375C40.4079 26.0982 39.0106 26.4653 37.4622 26.4653V10.6081C39.0106 10.6081 40.4079 10.9385 41.6541 11.6359C42.9003 12.2966 43.8444 13.251 44.5619 14.4623C45.2795 15.6736 45.6193 17.0317 45.6193 18.5367C45.6571 20.005 45.2795 21.3631 44.5619 22.6111Z" fill="#FDFDFD"/>
<path d="M77.3299 6L68.058 22.5854L58.6315 6H55V31H59.211V14.6585L67.0149 28.1138H68.9851L76.789 14.4553L76.8276 31H81L80.9614 6H77.3299Z" fill="#FDFDFD"/>
<path d="M94.7748 6L84 31H88.6066L90.988 25.2182H102.973L105.354 31H110L99.1862 6H94.7748ZM92.4324 21.5945L96.9219 10.6417L101.45 21.5945H92.4324Z" fill="#FDFDFD"/>
<path d="M133.401 6H128.61L117.267 18.8049V6H113V31H117.267V24.6179L120.898 20.5528L129.021 31H134L123.743 17.1789L133.401 6Z" fill="#FDFDFD"/>
<path d="M141.717 6H137V31H155V27.0569H141.717V6Z" fill="#FDFDFD"/>
<path d="M161.451 20.2276H173.048V16.4065H161.451V9.90244H174.492V6H157V31H175V27.0976H161.451V20.2276Z" fill="#FDFDFD"/>
<path d="M194.629 22.7886C196.229 22.1382 197.486 21.122 198.324 19.7398C199.162 18.3984 199.619 16.7724 199.619 14.9024C199.619 13.0732 199.2 11.4878 198.4 10.1463C197.6 8.80488 196.457 7.78862 194.933 7.05691C193.448 6.3252 191.657 6 189.638 6H180V30.9594H184.343V23.7236H189.638C190.057 23.7236 190.324 23.7236 190.552 23.6829L195.314 31H200L194.629 22.7886ZM193.752 18.6016C192.762 19.4553 191.352 19.9024 189.448 19.9024H184.381V9.94309H189.448C191.352 9.94309 192.8 10.3496 193.752 11.2439C194.743 12.0976 195.238 13.3171 195.238 14.9024C195.238 16.4878 194.743 17.7073 193.752 18.6016Z" fill="#FDFDFD"/>
</svg>
