<svg width="69" height="68" viewBox="0 0 69 68" fill="none" xmlns="http://www.w3.org/2000/svg">
<path d="M64.4073 23.2001H43.1473L38.9945 11.0739C38.8783 8.72977 36.9071 6.85791 34.5001 6.85791C32.0932 6.85791 30.1218 8.72977 30.0056 11.0738L25.8526 23.1998H4.59267C2.06029 23.2001 0 25.2304 0 27.7262V56.616C0 59.1118 2.06029 61.1421 4.59267 61.1421H9.49988C10.1904 61.1421 10.75 60.5906 10.75 59.9102C10.75 59.2298 10.1904 58.6782 9.49988 58.6782H4.59267C3.43881 58.6782 2.50003 57.753 2.50003 56.6159V27.7262C2.50003 26.589 3.43881 25.6639 4.59267 25.6639H26.7461C26.7474 25.6639 26.7488 25.6643 26.7501 25.6643C26.7515 25.6643 26.7529 25.6639 26.7543 25.6639H42.2456C42.2469 25.6639 42.2484 25.6643 42.2498 25.6643C42.2511 25.6643 42.2524 25.6639 42.2538 25.6639H64.4073C65.5612 25.6639 66.5 26.589 66.5 27.7262V56.616C66.5 57.7532 65.5612 58.6783 64.4073 58.6783H13.5001C12.8096 58.6783 12.25 59.2299 12.25 59.9103C12.25 60.5907 12.8096 61.1423 13.5001 61.1423H64.4073C66.9396 61.1423 69 59.1118 69 56.6161V27.7262C68.9999 25.2304 66.9396 23.2001 64.4073 23.2001ZM34.4999 9.32198C35.6026 9.32198 36.4999 10.2062 36.4999 11.2929C36.4999 12.3796 35.6026 13.2638 34.4999 13.2638C33.3973 13.2638 32.5 12.3796 32.5 11.2929C32.5 10.2062 33.3973 9.32198 34.4999 9.32198ZM28.4912 23.2001L31.4529 14.5528C32.2551 15.2817 33.3255 15.7278 34.4998 15.7278C35.6741 15.7278 36.7447 15.2817 37.5467 14.5528L40.5082 23.2001H28.4912Z" fill="#006FC6"/>
<path d="M43.5364 34.9365C42.8459 34.9365 42.2863 35.4881 42.2863 36.1685V43.9911L36.7293 35.5008C36.4286 35.0417 35.8571 34.8325 35.3256 34.9869C34.7939 35.1411 34.4287 35.6222 34.4287 36.1685V48.1736C34.4287 48.854 34.9883 49.4056 35.6788 49.4056C36.3693 49.4056 36.9289 48.854 36.9289 48.1736V40.3511L42.4859 48.8413C42.7204 49.1995 43.1197 49.4055 43.5364 49.4055C43.6539 49.4055 43.7728 49.389 43.8896 49.3553C44.4213 49.2011 44.7865 48.7199 44.7865 48.1736V36.1685C44.7865 35.4882 44.227 34.9365 43.5364 34.9365Z" fill="#006FC6"/>
<path d="M15.7596 43.3259C17.2869 42.6265 18.3487 41.1013 18.3487 39.3353C18.3487 36.9098 16.3465 34.9365 13.8855 34.9365H11.2296C10.539 34.9365 9.97949 35.4881 9.97949 36.1685V48.1736C9.97949 48.854 10.539 49.4056 11.2296 49.4056C11.9201 49.4056 12.4797 48.854 12.4797 48.1736V43.7339H13.1407L15.9015 48.76C16.1276 49.172 16.5578 49.4057 17.002 49.4057C17.2028 49.4057 17.4068 49.3578 17.5959 49.257C18.2031 48.9331 18.4287 48.1855 18.1 47.5871L15.7596 43.3259ZM13.8888 41.2697C13.8859 41.2697 13.8832 41.2698 13.8804 41.2698H12.4797V37.4002H13.8855C14.968 37.4002 15.8487 38.2681 15.8487 39.335C15.8487 40.4007 14.9696 41.2678 13.8888 41.2697Z" fill="#006FC6"/>
<path d="M29.6888 43.4352C30.3794 43.4352 30.9389 42.8836 30.9389 42.2032C30.9389 41.5228 30.3794 40.9712 29.6888 40.9712H25.1423V37.4006H29.6888V37.4005C30.3794 37.4005 30.9389 36.8489 30.9389 36.1685C30.9389 35.4881 30.3794 34.9365 29.6888 34.9365H23.8922C23.2016 34.9365 22.6421 35.4881 22.6421 36.1685V48.1736C22.6421 48.854 23.2016 49.4056 23.8922 49.4056H29.6888C30.3794 49.4056 30.9389 48.854 30.9389 48.1736C30.9389 47.4932 30.3794 46.9417 29.6888 46.9417H25.1423V43.435H29.6888V43.4352Z" fill="#006FC6"/>
<path d="M53.2623 44.8003C52.5718 44.8003 52.0122 45.3519 52.0122 46.0323V48.174C52.0122 48.8544 52.5718 49.406 53.2623 49.406C53.9528 49.406 54.5124 48.8544 54.5124 48.174V46.0323C54.5124 45.3519 53.9527 44.8003 53.2623 44.8003Z" fill="#006FC6"/>
<path d="M57.7704 34.9365H48.7535C48.063 34.9365 47.5034 35.4881 47.5034 36.1685C47.5034 36.8489 48.063 37.4005 48.7535 37.4005H52.012V42.7468C52.012 43.4272 52.5715 43.9788 53.2621 43.9788C53.9526 43.9788 54.5122 43.4272 54.5122 42.7468V37.4005H57.7705C58.4611 37.4005 59.0206 36.8489 59.0206 36.1685C59.0203 35.4882 58.4608 34.9365 57.7704 34.9365Z" fill="#006FC6"/>
</svg>
