<svg width="69" height="68" viewBox="0 0 69 68" fill="none" xmlns="http://www.w3.org/2000/svg">
<g clip-path="url(#clip0_22_1194)">
<path d="M58.2847 24.5203L51.5535 17.8866V7.47531C51.5535 6.83861 51.0298 6.32237 50.3836 6.32237H44.0274C43.3812 6.32237 42.8575 6.83861 42.8575 7.47531V9.31675L38.9497 5.4656C38.4927 5.01537 37.7521 5.01537 37.2952 5.4656L17.9603 24.5204C17.5035 24.9706 17.5035 25.7007 17.9603 26.1508C18.4172 26.601 19.1578 26.601 19.6148 26.1508L23.2808 22.5379V29.1197C23.2808 29.7564 23.8045 30.2726 24.4507 30.2726C25.0969 30.2726 25.6206 29.7564 25.6206 29.1197V20.2322L38.1225 7.91134L43.199 12.9142C43.1998 12.915 50.6245 20.2322 50.6245 20.2322V33.8552C50.6245 34.4919 51.1482 35.0082 51.7944 35.0082C52.4406 35.0082 52.9643 34.4919 52.9643 33.8552V22.5381L56.6301 26.1507C56.8586 26.3758 57.1581 26.4884 57.4574 26.4884C57.7567 26.4884 58.0562 26.3759 58.2847 26.1507C58.7417 25.7004 58.7417 24.9704 58.2847 24.5203ZM49.2138 15.581L45.1974 11.6228V8.62826H49.2138V15.581Z" fill="#006FC6"/>
<path d="M42.5877 23.7744H33.6582C33.012 23.7744 32.4883 24.2907 32.4883 24.9274V31.076C32.4883 31.7127 33.012 32.229 33.6582 32.229C34.3044 32.229 34.8281 31.7127 34.8281 31.076V26.0803H41.4178V32.4594C41.4178 33.0962 41.9415 33.6123 42.5877 33.6123C43.2339 33.6123 43.7576 33.0961 43.7576 32.4594V24.9274C43.7576 24.2907 43.2339 23.7744 42.5877 23.7744Z" fill="#006FC6"/>
<path d="M68.1564 41.2202C66.7219 39.0044 63.8529 38.1851 61.4579 39.2392C61.09 37.8197 60.13 36.5761 58.7646 35.8672C57.9958 35.4681 57.1334 35.2571 56.2712 35.2571C54.3873 35.2571 52.6762 36.2028 51.6936 37.7873L45.3874 47.972L45.3432 47.9962C44.3613 48.531 43.2115 48.7237 42.1055 48.5394L26.6727 45.9631C25.607 45.7852 24.8488 44.8148 24.9462 43.7537C24.9989 43.1803 25.2822 42.67 25.7441 42.317C26.2058 41.964 26.7774 41.8203 27.3546 41.9128L40.7534 44.0587C43.1684 44.4456 45.5195 42.9156 46.1087 40.5766C46.4161 39.3557 46.2093 38.0981 45.5261 37.0356C44.8427 35.9728 43.7772 35.2517 42.5257 35.0044L21.1356 30.7783C20.2726 30.6077 19.3888 30.5133 18.5091 30.4974C14.6085 30.4274 10.8619 32.4314 8.72322 35.7284C6.65336 38.9193 3.82936 41.6552 0.556455 43.6401C0.00634356 43.9738 -0.165482 44.684 0.173183 45.2262C0.511982 45.7685 1.2323 45.9377 1.78268 45.6039C5.35409 43.4379 8.43577 40.4527 10.6947 36.9705C12.3697 34.3884 15.2756 32.8015 18.3092 32.8015C18.3613 32.8015 18.414 32.8019 18.4661 32.8029C19.2062 32.8163 19.9497 32.8957 20.6758 33.0391L42.0657 37.2652C42.6848 37.3875 43.2119 37.7444 43.5498 38.2698C43.8877 38.7952 43.9899 39.4172 43.838 40.0212C43.5399 41.2046 42.3487 41.978 41.129 41.7827L27.7302 39.6368C26.5223 39.4433 25.2765 39.7562 24.3103 40.4949C23.3442 41.2336 22.7265 42.3454 22.6162 43.5458C22.4092 45.7983 24.0196 47.8588 26.2823 48.2365L41.7151 50.8128C43.3407 51.0843 45.032 50.8007 46.4758 50.0141L62.1804 41.4574C63.5709 40.6999 65.3294 41.1403 66.1842 42.4604C66.6191 43.1322 66.7616 43.9304 66.5853 44.7079C66.4091 45.4856 65.9357 46.1481 65.2522 46.5737L44.9562 59.2144C43.1542 60.3365 41.0016 60.782 38.8936 60.468L26.7657 58.6623C26.1257 58.5677 25.5307 59.0007 25.4342 59.6301C25.3379 60.2596 25.7773 60.8472 26.4163 60.9423L38.5442 62.748C39.101 62.8309 39.6604 62.8719 40.2178 62.8719C42.3262 62.8719 44.4051 62.2854 46.2062 61.1637L66.5024 48.523C67.7157 47.7673 68.5562 46.5909 68.869 45.2103C69.1819 43.8298 68.9286 42.4127 68.1564 41.2202ZM49.5242 45.7182L53.6907 38.989C54.2444 38.096 55.2091 37.5628 56.2713 37.5628C56.7554 37.5628 57.2404 37.6818 57.6743 37.9072C58.63 38.4033 59.231 39.3647 59.2798 40.4028L49.5242 45.7182Z" fill="#006FC6"/>
<path d="M22.8081 58.0727L14.9228 56.8988C13.4016 56.6722 11.856 57.0064 10.5707 57.8396L8.54723 59.151C8.00736 59.5008 7.85764 60.2158 8.21247 60.7478C8.43726 61.0846 8.81056 61.2674 9.191 61.2674C9.41161 61.2674 9.63478 61.206 9.83275 61.0776L11.8563 59.7662C12.6586 59.2461 13.6229 59.0374 14.5734 59.179L22.4586 60.353C23.0967 60.4475 23.6936 60.0148 23.7901 59.3853C23.8866 58.7554 23.447 58.1679 22.8081 58.0727Z" fill="#006FC6"/>
</g>
<defs>
<clipPath id="clip0_22_1194">
<rect width="69" height="68" fill="white"/>
</clipPath>
</defs>
</svg>
